
<svg xmlns="http://www.w3.org/2000/svg" viewBox="3 48 1332 158" width="533" height="63">
  <path fill="#0F172A" d="M51.634 79.901L7.102 79.901L7.102 54.545L126.563 54.545L126.563 79.901L82.031 79.901L82.031 200L51.634 200L51.634 79.901ZM171.934 136.932L171.934 136.932L171.934 200L141.679 200L141.679 54.545L171.082 54.545L171.082 110.156L172.360 110.156Q176.054 100.497 184.292 94.993Q192.531 89.489 204.960 89.489L204.960 89.489Q216.324 89.489 224.811 94.425Q233.298 99.361 238.021 108.558Q242.744 117.756 242.673 130.540L242.673 130.540L242.673 200L212.417 200L212.417 135.938Q212.488 125.852 207.339 120.241Q202.190 114.631 192.957 114.631L192.957 114.631Q186.778 114.631 182.055 117.259Q177.332 119.886 174.669 124.893Q172.005 129.901 171.934 136.932ZM312.193 202.131L312.193 202.131Q295.360 202.131 283.251 195.277Q271.141 188.423 264.607 175.817Q258.073 163.210 258.073 145.952L258.073 145.952Q258.073 129.119 264.607 116.406Q271.141 103.693 283.038 96.591Q294.934 89.489 310.985 89.489L310.985 89.489Q321.781 89.489 331.120 92.933Q340.460 96.378 347.455 103.267Q354.451 110.156 358.357 120.561Q362.264 130.966 362.264 144.886L362.264 144.886L362.264 153.196L270.147 153.196L270.147 134.446L333.783 134.446Q333.783 127.912 330.943 122.869Q328.102 117.827 323.094 114.950Q318.087 112.074 311.482 112.074L311.482 112.074Q304.593 112.074 299.302 115.234Q294.011 118.395 291.028 123.686Q288.045 128.977 287.974 135.440L287.974 135.440L287.974 153.267Q287.974 161.364 290.992 167.259Q294.011 173.153 299.550 176.349Q305.090 179.545 312.690 179.545L312.690 179.545Q317.732 179.545 321.923 178.125Q326.113 176.705 329.096 173.864Q332.079 171.023 333.641 166.903L333.641 166.903L361.624 168.750Q359.494 178.835 352.924 186.328Q346.354 193.821 336.021 197.976Q325.687 202.131 312.193 202.131Z"></path>
  <path fill="#8B5CF6" d="M482.979 200L420.834 200L420.834 54.545L479.073 54.545Q495.124 54.545 505.848 59.304Q516.573 64.063 521.970 72.479Q527.368 80.895 527.368 91.832L527.368 91.832Q527.368 100.355 523.959 106.783Q520.550 113.210 514.619 117.294Q508.689 121.378 501.090 123.082L501.090 123.082L501.090 124.503Q509.399 124.858 516.679 129.190Q523.959 133.523 528.504 141.300Q533.050 149.077 533.050 159.801L533.050 159.801Q533.050 171.378 527.332 180.433Q521.615 189.489 510.465 194.744Q499.314 200 482.979 200L482.979 200ZM451.587 136.222L451.587 174.858L476.658 174.858Q489.513 174.858 495.408 169.922Q501.303 164.986 501.303 156.747L501.303 156.747Q501.303 150.710 498.391 146.094Q495.479 141.477 490.117 138.849Q484.754 136.222 477.368 136.222L477.368 136.222L451.587 136.222ZM451.587 79.403L451.587 115.412L474.385 115.412Q480.706 115.412 485.642 113.175Q490.578 110.937 493.455 106.818Q496.331 102.699 496.331 96.946L496.331 96.946Q496.331 89.062 490.756 84.233Q485.180 79.403 474.953 79.403L474.953 79.403L451.587 79.403Z"></path>
  <path fill="#0F172A" d="M719.603 105.469L719.603 105.469L688.495 105.469Q687.643 99.432 685.015 94.709Q682.387 89.986 678.268 86.648Q674.149 83.310 668.786 81.534Q663.424 79.759 657.174 79.759L657.174 79.759Q645.881 79.759 637.501 85.334Q629.120 90.909 624.504 101.527Q619.887 112.145 619.887 127.273L619.887 127.273Q619.887 142.827 624.539 153.409Q629.191 163.991 637.572 169.389Q645.953 174.787 656.961 174.787L656.961 174.787Q663.140 174.787 668.431 173.153Q673.722 171.520 677.842 168.359Q681.961 165.199 684.695 160.653Q687.430 156.108 688.495 150.284L688.495 150.284L719.603 150.426Q718.396 160.440 713.602 169.709Q708.808 178.977 700.747 186.257Q692.685 193.537 681.570 197.763Q670.455 201.989 656.464 201.989L656.464 201.989Q637.004 201.989 621.698 193.182Q606.393 184.375 597.551 167.685Q588.708 150.994 588.708 127.273L588.708 127.273Q588.708 103.480 597.657 86.790Q606.606 70.099 621.947 61.328Q637.288 52.557 656.464 52.557L656.464 52.557Q669.106 52.557 679.937 56.108Q690.768 59.659 699.149 66.442Q707.529 73.224 712.820 83.026Q718.112 92.827 719.603 105.469ZM786.353 202.131L786.353 202.131Q769.804 202.131 757.766 195.064Q745.728 187.997 739.194 175.320Q732.660 162.642 732.660 145.881L732.660 145.881Q732.660 128.977 739.194 116.300Q745.728 103.622 757.766 96.555Q769.804 89.489 786.353 89.489L786.353 89.489Q802.901 89.489 814.939 96.555Q826.978 103.622 833.512 116.300Q840.046 128.977 840.046 145.881L840.046 145.881Q840.046 162.642 833.512 175.320Q826.978 187.997 814.939 195.064Q802.901 202.131 786.353 202.131ZM786.495 178.693L786.495 178.693Q794.023 178.693 799.066 174.396Q804.108 170.099 806.701 162.642Q809.293 155.185 809.293 145.668L809.293 145.668Q809.293 136.151 806.701 128.693Q804.108 121.236 799.066 116.903Q794.023 112.571 786.495 112.571L786.495 112.571Q778.895 112.571 773.746 116.903Q768.597 121.236 766.005 128.693Q763.412 136.151 763.412 145.668L763.412 145.668Q763.412 155.185 766.005 162.642Q768.597 170.099 773.746 174.396Q778.895 178.693 786.495 178.693ZM885.986 136.932L885.986 136.932L885.986 200L855.730 200L855.730 90.909L884.565 90.909L884.565 110.156L885.844 110.156Q889.466 100.639 897.989 95.064Q906.511 89.489 918.656 89.489L918.656 89.489Q930.020 89.489 938.472 94.460Q946.923 99.432 951.611 108.629Q956.298 117.827 956.298 130.540L956.298 130.540L956.298 200L926.043 200L926.043 135.938Q926.114 125.923 920.929 120.277Q915.744 114.631 906.654 114.631L906.654 114.631Q900.546 114.631 895.894 117.259Q891.242 119.886 888.649 124.893Q886.057 129.901 885.986 136.932ZM968.361 90.909L1034.057 90.909L1034.057 113.636L968.361 113.636L968.361 90.909ZM983.275 170.455L983.275 64.773L1013.531 64.773L1013.531 166.477Q1013.531 170.668 1014.809 172.976Q1016.088 175.284 1018.396 176.207Q1020.704 177.131 1023.758 177.131L1023.758 177.131Q1025.889 177.131 1028.020 176.740Q1030.150 176.349 1031.287 176.136L1031.287 176.136L1036.045 198.651Q1033.773 199.361 1029.653 200.320Q1025.534 201.278 1019.639 201.491L1019.639 201.491Q1008.701 201.918 1000.498 198.580Q992.295 195.241 987.750 188.210Q983.204 181.179 983.275 170.455L983.275 170.455ZM1098.249 202.131L1098.249 202.131Q1081.417 202.131 1069.308 195.277Q1057.198 188.423 1050.664 175.817Q1044.130 163.210 1044.130 145.952L1044.130 145.952Q1044.130 129.119 1050.664 116.406Q1057.198 103.693 1069.095 96.591Q1080.991 89.489 1097.042 89.489L1097.042 89.489Q1107.838 89.489 1117.177 92.933Q1126.516 96.378 1133.512 103.267Q1140.508 110.156 1144.414 120.561Q1148.320 130.966 1148.320 144.886L1148.320 144.886L1148.320 153.196L1056.204 153.196L1056.204 134.446L1119.840 134.446Q1119.840 127.912 1116.999 122.869Q1114.159 117.827 1109.151 114.950Q1104.144 112.074 1097.539 112.074L1097.539 112.074Q1090.650 112.074 1085.359 115.234Q1080.068 118.395 1077.085 123.686Q1074.102 128.977 1074.031 135.440L1074.031 135.440L1074.031 153.267Q1074.031 161.364 1077.049 167.259Q1080.068 173.153 1085.607 176.349Q1091.147 179.545 1098.747 179.545L1098.747 179.545Q1103.789 179.545 1107.980 178.125Q1112.170 176.705 1115.153 173.864Q1118.136 171.023 1119.698 166.903L1119.698 166.903L1147.681 168.750Q1145.551 178.835 1138.981 186.328Q1132.411 193.821 1122.078 197.976Q1111.744 202.131 1098.249 202.131ZM1156.192 90.909L1187.442 90.909L1207.471 129.048L1227.996 90.909L1259.033 90.909L1227.428 145.455L1259.885 200L1228.991 200L1207.471 162.287L1186.306 200L1155.056 200L1187.442 145.455L1156.192 90.909ZM1265.200 90.909L1330.896 90.909L1330.896 113.636L1265.200 113.636L1265.200 90.909ZM1280.115 170.455L1280.115 64.773L1310.371 64.773L1310.371 166.477Q1310.371 170.668 1311.649 172.976Q1312.928 175.284 1315.236 176.207Q1317.544 177.131 1320.598 177.131L1320.598 177.131Q1322.729 177.131 1324.860 176.740Q1326.990 176.349 1328.127 176.136L1328.127 176.136L1332.885 198.651Q1330.612 199.361 1326.493 200.320Q1322.374 201.278 1316.479 201.491L1316.479 201.491Q1305.541 201.918 1297.338 198.580Q1289.135 195.241 1284.590 188.210Q1280.044 181.179 1280.115 170.455L1280.115 170.455Z"></path>
</svg>